<svg xmlns="http://www.w3.org/2000/svg" viewBox="0 0 342 21"><path d="M12.65.56v1.42L.27.56h12.38zm0 3.03V5L.27 3.6h12.38zm0 3.02v1.42L.27 6.6h12.38zm0 3.02v1.42L.27 9.63h12.38zm0 3.03v1.42L.27 12.66h12.38zm0 3.02v1.42L.27 15.68h12.38zm0 3.06v1.42L.27 18.74h12.38zm11.18 1.51v-7.24h-.34l-2.62 7.24H13.6V.56h6.27l-.56 11h.18l4.1-11h4.76v11h.19l3.37-11h6.26l-6.39 19.69h-7.94zm32.18 0l.97-5.76h-3.52l-1.01 5.76h-5.3l2.9-16.66h5.33l-1.04 5.76h3.56l1-5.76h5.33L61.3 20.25H56zm-9.9-.1l-13.35-1.41h13.6l-.24 1.42zm1.08-6.07l-13.36-1.42h13.6l-.24 1.42zm.53-3.03L34.37 9.63h13.6l-.25 1.42zm.54-3.02L34.9 6.6h13.61l-.25 1.42zM48.79 5L35.44 3.6H49L48.8 5zm-2.14 12.1L33.3 15.68h13.6l-.25 1.42zm39.83-3.62h-4.7l-.37 2.14h5.83l-.82 4.63H75.3l2.9-16.66h11.08L87.8 8.3h-5.13l-.38 2.14h4.73l-.54 3.03zm-12.22 6.68L60.9 18.74h13.61l-.25 1.42zm1.07-6.08l-13.36-1.42h13.61l-.25 1.42zm.54-3.03L62.5 9.63h13.6l-.24 1.42zm.53-3.02L63.04 6.6h13.61l-.25 1.42zM76.94 5L63.58 3.6h13.58L76.94 5zm-2.15 12.1l-13.35-1.42h13.6l-.25 1.42zm36.18-3.62h-4.7l-.37 2.14h5.83l-.82 4.63H99.79l2.9-16.66h11.08L112.3 8.3h-5.13l-.38 2.14h4.73l-.54 3.03zm-12.22 6.68l-13.36-1.42H99l-.25 1.42zm1.07-6.08l-13.36-1.42h13.61l-.25 1.42zm.53-3.03L87 9.63h13.6l-.25 1.42zm.54-3.02L87.53 6.6h13.61l-.25 1.42zm.54-3.03L88.07 3.6h13.58L101.43 5zm-2.15 12.1l-13.35-1.42h13.6l-.25 1.42zm35.23 3.15h-10.23l2.9-16.66h5.54l-2.11 12.03h4.72l-.82 4.63zm-11.27-.1l-13.36-1.41h13.6l-.24 1.42zm1.07-6.07l-13.36-1.42h13.61l-.25 1.42zm.53-3.03L111.5 9.63h13.6l-.25 1.42zm.54-3.02L112.02 6.6h13.61l-.25 1.42zM125.9 5L112.56 3.6h13.58L125.9 5zm-2.14 12.1l-13.35-1.42h13.6l-.25 1.42zm37.28 2.2a22.16 22.16 0 01-7.72 1.42c-2.58 0-4.44-.51-5.59-1.54-1.14-1.03-1.72-2.62-1.72-4.76 0-.9.15-2.23.45-4 .63-3.65 1.74-6.29 3.34-7.9C151.4.9 154.05.09 157.74.09c.8 0 1.8.08 3 .25 1.2.17 2.07.36 2.64.57l-1.73 4.82c-1.58-.3-3.02-.44-4.33-.44s-2.25.1-2.82.31c-.57.21-.9.63-1.01 1.26l-1.54 8.92h1.98c.72 0 1.25-.08 1.6-.24.34-.16.56-.52.67-1.09l.16-.85h-1.52l.86-4.82h7.2l-1.85 10.53zm-15.47-9.04c-.05.23-.1.46-.12.7l-12.38-1.33h12.6l-.1.63zm-.34 2.4c-.06.44-.1.88-.1 1.32l-12.4-1.32h12.5zm1.2-6.05l-.38 1.3-12.23-1.3h12.6zm-1.27 9.07c.09.59.16 1.03.23 1.33l-12.26-1.33h12.03zm2.56-12.1c-.3.55-.5.97-.63 1.27l-11.78-1.26h12.4zm-1.61 15.16c.27.48.59.87.94 1.16l-10.9-1.16h9.96zm4.6-18.18c-.61.38-1.08.73-1.42 1.04L139.66.56h11.06zm34.41 12.92h-4.7l-.37 2.14h5.83l-.82 4.63h-11.12l2.9-16.66h11.08l-1.48 4.72h-5.13l-.38 2.14h4.73l-.54 3.03zm-12.22 6.68l-13.36-1.42h13.61l-.25 1.42zm1.07-6.08l-13.36-1.42h13.61l-.25 1.42zm.53-3.03l-13.35-1.42h13.6l-.25 1.42zm.54-3.02L161.69 6.6h13.61l-.25 1.42zm.54-3.03L162.23 3.6h13.58L175.59 5zm-2.15 12.1l-13.35-1.42h13.6l-.25 1.42zm11.07 1.64h13.61l-.44 1.42-13.17-1.42zm16-12.13c-.12.34-.26.8-.4 1.42L186.94 6.6h13.58zm-.78 4.19v.25l-13.36-1.42h13.42c-.04.5-.06.9-.06 1.17zm-1.04 6.27l-13.14-1.39h13.58l-.44 1.39zm4-13.48c-.57.42-1 .86-1.3 1.32l-12.28-1.32h13.58zM200 12.66c.19.54.5 1.02.92 1.42l-13.33-1.42h12.41zm12.57-4.13a16.37 16.37 0 00-5.9-.4l-.15.9 1.58.2c3.38.44 5.07 1.83 5.07 4.18a11.14 11.14 0 01-.82 3.69c-.3.7-.67 1.25-1.12 1.69-.45.43-.9.77-1.32 1.03a4.5 4.5 0 01-1.66.56c-1.05.16-2.45.25-4.2.25s-3.52-.24-5.3-.73l1.53-4.66c1.64.46 3.08.7 4.3.7 1.23 0 2.1-.04 2.6-.1l.16-1-1.98-.23c-1.7-.19-2.91-.59-3.63-1.2-.71-.6-1.07-1.48-1.07-2.61 0-.42.06-.95.16-1.58.42-2.24 1.18-3.8 2.27-4.66 1.09-.86 2.75-1.29 5-1.29 2.23 0 4.23.22 6 .66l-1.52 4.6zm25.62-.22h-3.4l-2.08 11.94h-5.54l2.08-11.94h-3.5l.85-4.72h12.44l-.85 4.72zm-11.97 11.85l-13.35-1.42h13.6l-.25 1.42zm1.07-6.08l-13.35-1.42h13.6l-.25 1.42zm.54-3.03l-13.36-1.42h13.61l-.25 1.42zm-3.02-3.02L211.46 6.6h13.6l-.24 1.42zm.53-3.03L212 3.6h13.57L225.35 5zm1.42 12.1l-13.36-1.42h13.61l-.25 1.42zm21.59-3.02L235 12.66h13.61l-.25 1.42zm.53-3.03l-13.35-1.42h13.6l-.24 1.42zm.54-3.02L236.07 6.6h13.61l-.25 1.42zm.54-3.03L236.6 3.6h13.58L249.97 5zm-1.74 10.68v.63c0 .36.01.62.03.79l-13.35-1.42h13.32zm1.23 4.48l-13.35-1.42h12.44c.23.59.53 1.06.91 1.42zm6.46-4.32c.57 0 .96-.07 1.18-.2.22-.14.37-.47.46-1l1.98-11.05h5.3l-1.64 9.38c-.5 2.94-1.32 4.95-2.45 6.04-1.12 1.08-3.04 1.62-5.74 1.62-2.17 0-3.68-.32-4.54-.96-.86-.64-1.3-1.76-1.3-3.36 0-.88.12-2 .36-3.34l1.66-9.38h5.3l-2.15 12.25h1.58zm30.03-12.25c3.07 0 4.6 1.38 4.6 4.15 0 1.26-.25 2.57-.75 3.93a5.6 5.6 0 01-2.56 3.04l1.8 5.54h-5.9l-1.19-4.85h-.75l-.85 4.85h-5.3l2.9-16.66h8zm-1.16 5.45c0-.02 0-.13.03-.32 0-.36-.56-.53-1.67-.53h-.7l-.5 2.9h1.01c.97 0 1.51-.32 1.64-.95l.19-1.1zM274 20.16l-13.35-1.42h13.6l-.25 1.42zm1.07-6.08l-13.35-1.42h13.6l-.25 1.42zm.54-3.03l-13.36-1.42h13.61l-.25 1.42zm.54-3.02L262.8 6.6h13.6l-.24 1.42zm.53-3.03L263.34 3.6h13.57L276.7 5zm-2.14 12.1l-13.36-1.42h13.61l-.25 1.42zm38.22-3.62h-4.7l-.37 2.14h5.83l-.82 4.63h-11.12l2.9-16.66h11.09L314.1 8.3h-5.14l-.38 2.14h4.73l-.54 3.03zm-12.22 6.68l-13.36-1.42h13.61l-.25 1.42zm1.07-6.08l-13.35-1.42h13.6l-.25 1.42zm.54-3.03L288.8 9.63h13.6l-.24 1.42zm.53-3.02L289.34 6.6h13.6l-.25 1.42zm.54-3.03L289.87 3.6h13.58L303.23 5zm-2.14 12.1l-13.36-1.42h13.6l-.24 1.42zm11.07 1.64h13.6l-.44 1.42-13.16-1.42zm16-12.13c-.13.34-.26.8-.41 1.42L314.58 6.6h13.58zm-.79 4.19v.25l-13.36-1.42h13.42c-.04.5-.06.9-.06 1.17zm-1.04 6.27l-13.13-1.39h13.57l-.44 1.39zm4-13.48c-.57.42-1 .86-1.29 1.32l-12.29-1.32h13.58zm-2.68 9.07c.19.54.5 1.02.92 1.42l-13.33-1.42h12.41zm12.57-4.13a16.37 16.37 0 00-5.89-.4l-.16.9 1.58.2c3.38.44 5.07 1.83 5.07 4.18a11.14 11.14 0 01-.82 3.69c-.3.7-.66 1.25-1.12 1.69-.45.43-.89.77-1.32 1.03a4.5 4.5 0 01-1.65.56c-1.05.16-2.45.25-4.2.25-1.76 0-3.53-.24-5.32-.73l1.55-4.66c1.64.46 3.07.7 4.3.7s2.1-.04 2.6-.1l.15-1-1.98-.23c-1.7-.19-2.9-.59-3.62-1.2-.72-.6-1.07-1.48-1.07-2.61 0-.42.05-.95.15-1.58.42-2.24 1.18-3.8 2.27-4.66 1.1-.86 2.76-1.29 5-1.29 2.23 0 4.23.22 6 .66l-1.52 4.6z" fill="#FF4949" fill-rule="nonzero"/></svg>
