<svg width="912px" height="56px" viewBox="0 0 912 56" version="1.1" xmlns="http://www.w3.org/2000/svg" xmlns:xlink="http://www.w3.org/1999/xlink">
    <g id="Page-1" stroke="none" stroke-width="1" fill="none" fill-rule="evenodd">
        <g id="Artboard" transform="translate(-28.000000, -171.000000)" fill="#FF4949" fill-rule="nonzero">
            <path d="M61.732,172.5 L61.732,176.28 L28.72,172.5 L61.732,172.5 Z M61.732,180.564 L61.732,184.344 L28.72,180.564 L61.732,180.564 Z M61.732,188.628 L61.732,192.408 L28.72,188.628 L61.732,188.628 Z M61.732,196.692 L61.732,200.472 L28.72,196.692 L61.732,196.692 Z M61.732,204.756 L61.732,208.536 L28.72,204.756 L61.732,204.756 Z M61.732,212.82 L61.732,216.6 L28.72,212.82 L61.732,212.82 Z M61.732,220.968 L61.732,224.748 L28.72,220.968 L61.732,220.968 Z M91.552,225 L91.552,205.68 L90.628,205.68 L83.656,225 L64.252,225 L64.252,172.5 L80.968,172.5 L79.456,201.816 L79.96,201.816 L90.88,172.5 L103.564,172.5 L103.564,201.816 L104.068,201.816 L113.056,172.5 L129.772,172.5 L112.72,225 L91.552,225 Z M177.352,225 L179.956,209.628 L170.548,209.628 L167.86,225 L153.748,225 L161.476,180.564 L175.672,180.564 L172.9,195.936 L182.392,195.936 L185.08,180.564 L199.276,180.564 L191.464,225 L177.352,225 Z M150.976,224.748 L115.36,220.968 L151.648,220.968 L150.976,224.748 Z M153.832,208.536 L118.216,204.756 L154.504,204.756 L153.832,208.536 Z M155.26,200.472 L119.644,196.692 L155.932,196.692 L155.26,200.472 Z M156.688,192.408 L121.072,188.628 L157.36,188.628 L156.688,192.408 Z M158.116,184.344 L122.5,180.564 L158.704,180.564 L158.116,184.344 Z M152.404,216.6 L116.788,212.82 L153.076,212.82 L152.404,216.6 Z M258.616,206.94 L246.1,206.94 L245.092,212.652 L260.632,212.652 L258.448,225 L228.796,225 L236.524,180.564 L266.092,180.564 L262.144,193.164 L248.452,193.164 L247.444,198.876 L260.044,198.876 L258.616,206.94 Z M226.024,224.748 L190.408,220.968 L226.696,220.968 L226.024,224.748 Z M228.88,208.536 L193.264,204.756 L229.552,204.756 L228.88,208.536 Z M230.308,200.472 L194.692,196.692 L230.98,196.692 L230.308,200.472 Z M231.736,192.408 L196.12,188.628 L232.408,188.628 L231.736,192.408 Z M233.164,184.344 L197.548,180.564 L233.752,180.564 L233.164,184.344 Z M227.452,216.6 L191.836,212.82 L228.124,212.82 L227.452,216.6 Z M323.92,206.94 L311.404,206.94 L310.396,212.652 L325.936,212.652 L323.752,225 L294.1,225 L301.828,180.564 L331.396,180.564 L327.448,193.164 L313.756,193.164 L312.748,198.876 L325.348,198.876 L323.92,206.94 Z M291.328,224.748 L255.712,220.968 L292,220.968 L291.328,224.748 Z M294.184,208.536 L258.568,204.756 L294.856,204.756 L294.184,208.536 Z M295.612,200.472 L259.996,196.692 L296.284,196.692 L295.612,200.472 Z M297.04,192.408 L261.424,188.628 L297.712,188.628 L297.04,192.408 Z M298.468,184.344 L262.852,180.564 L299.056,180.564 L298.468,184.344 Z M292.756,216.6 L257.14,212.82 L293.428,212.82 L292.756,216.6 Z M386.704,225 L359.404,225 L367.132,180.564 L381.916,180.564 L376.288,212.652 L388.888,212.652 L386.704,225 Z M356.632,224.748 L321.016,220.968 L357.304,220.968 L356.632,224.748 Z M359.488,208.536 L323.872,204.756 L360.16,204.756 L359.488,208.536 Z M360.916,200.472 L325.3,196.692 L361.588,196.692 L360.916,200.472 Z M362.344,192.408 L326.728,188.628 L363.016,188.628 L362.344,192.408 Z M363.772,184.344 L328.156,180.564 L364.36,180.564 L363.772,184.344 Z M358.06,216.6 L322.444,212.82 L358.732,212.82 L358.06,216.6 Z M457.468,222.48 C450.635966,225.000013 443.776034,226.26 436.888,226.26 C429.999966,226.26 425.030015,224.888014 421.978,222.144 C418.925985,219.399986 417.4,215.172029 417.4,209.46 C417.4,207.051988 417.791996,203.496024 418.576,198.792 C420.256008,189.047951 423.223979,182.020022 427.48,177.708 C431.736021,173.395978 438.791951,171.24 448.648,171.24 C450.776011,171.24 453.435984,171.463998 456.628,171.912 C459.820016,172.360002 462.171992,172.863997 463.684,173.424 L459.064,186.276 C454.863979,185.491996 451.014018,185.1 447.514,185.1 C444.013982,185.1 441.508008,185.379997 439.996,185.94 C438.483992,186.500003 437.588001,187.619992 437.308,189.3 L433.192,213.072 L438.484,213.072 C440.38801,213.072 441.801995,212.862002 442.726,212.442 C443.650005,212.021998 444.251999,211.056008 444.532,209.544 L444.952,207.276 L440.92,207.276 L443.188,194.424 L462.424,194.424 L457.468,222.48 Z M416.224,198.372 C416.111999,198.820002 416.000001,199.435996 415.888,200.22 L382.876,196.692 L416.476,196.692 L416.224,198.372 Z M415.3,204.756 C415.131999,206.044006 415.048,207.219995 415.048,208.284 L381.952,204.756 L415.3,204.756 Z M418.492,188.628 L417.484,192.072 L384.892,188.628 L418.492,188.628 Z M415.132,212.82 C415.356001,214.388008 415.551999,215.563996 415.72,216.348 L383.044,212.82 L415.132,212.82 Z M421.936,180.564 C421.151996,182.020007 420.592002,183.139996 420.256,183.924 L388.84,180.564 L421.936,180.564 Z M417.652,220.968 C418.380004,222.256006 419.219995,223.291996 420.172,224.076 L391.108,220.968 L417.652,220.968 Z M429.916,172.5 C428.291992,173.508005 427.032004,174.431996 426.136,175.272 L400.432,172.5 L429.916,172.5 Z M521.68,206.94 L509.164,206.94 L508.156,212.652 L523.696,212.652 L521.512,225 L491.86,225 L499.588,180.564 L529.156,180.564 L525.208,193.164 L511.516,193.164 L510.508,198.876 L523.108,198.876 L521.68,206.94 Z M489.088,224.748 L453.472,220.968 L489.76,220.968 L489.088,224.748 Z M491.944,208.536 L456.328,204.756 L492.616,204.756 L491.944,208.536 Z M493.372,200.472 L457.756,196.692 L494.044,196.692 L493.372,200.472 Z M494.8,192.408 L459.184,188.628 L495.472,188.628 L494.8,192.408 Z M496.228,184.344 L460.612,180.564 L496.816,180.564 L496.228,184.344 Z M490.516,216.6 L454.9,212.82 L491.188,212.82 L490.516,216.6 Z M520.036,220.968 L556.324,220.968 L555.148,224.748 L520.036,220.968 Z M562.708,188.628 C562.371998,189.524004 562.008002,190.783992 561.616,192.408 L526.504,188.628 L562.708,188.628 Z M560.608,199.8 L560.608,200.472 L524.992,196.692 L560.776,196.692 C560.663999,198.036007 560.608,199.071996 560.608,199.8 Z M557.836,216.516 L522.808,212.82 L559.012,212.82 L557.836,216.516 Z M568.504,180.564 C566.991992,181.684006 565.844004,182.859994 565.06,184.092 L532.3,180.564 L568.504,180.564 Z M561.364,204.756 C561.868003,206.212007 562.679994,207.471995 563.8,208.536 L528.268,204.756 L561.364,204.756 Z M594.88,193.752 C591.071981,192.855996 587.824013,192.408 585.136,192.408 C582.447987,192.408 580.460006,192.491999 579.172,192.66 L578.752,195.096 L582.952,195.6 C591.968045,196.776006 596.476,200.499969 596.476,206.772 C596.476,207.500004 596.308002,208.85799 595.972,210.846 C595.635998,212.83401 595.076004,214.751991 594.292,216.6 C593.507996,218.448009 592.514006,219.945994 591.31,221.094 C590.105994,222.242006 588.930006,223.165997 587.782,223.866 C586.633994,224.566003 585.164009,225.055999 583.372,225.336 C580.571986,225.784002 576.834023,226.008 572.158,226.008 C567.481977,226.008 562.764024,225.364006 558.004,224.076 L562.12,211.644 C566.488022,212.876006 570.309984,213.492 573.586,213.492 C576.862016,213.492 579.171993,213.408001 580.516,213.24 L580.936,210.552 L575.644,209.964 C571.107977,209.459997 567.88801,208.396008 565.984,206.772 C564.07999,205.147992 563.128,202.824015 563.128,199.8 C563.128,198.679994 563.267999,197.280008 563.548,195.6 C564.668006,189.60797 566.683985,185.464011 569.596,183.168 C572.508015,180.871989 576.94597,179.724 582.91,179.724 C588.87403,179.724 594.207976,180.311994 598.912,181.488 L594.88,193.752 Z M663.208,193.164 L654.136,193.164 L648.592,225 L633.808,225 L639.352,193.164 L630.028,193.164 L632.296,180.564 L665.476,180.564 L663.208,193.164 Z M631.288,224.748 L595.672,220.968 L631.96,220.968 L631.288,224.748 Z M634.144,208.536 L598.528,204.756 L634.816,204.756 L634.144,208.536 Z M635.572,200.472 L599.956,196.692 L636.244,196.692 L635.572,200.472 Z M627.508,192.408 L591.892,188.628 L628.18,188.628 L627.508,192.408 Z M628.936,184.344 L593.32,180.564 L629.524,180.564 L628.936,184.344 Z M632.716,216.6 L597.1,212.82 L633.388,212.82 L632.716,216.6 Z M690.292,208.536 L654.676,204.756 L690.964,204.756 L690.292,208.536 Z M691.72,200.472 L656.104,196.692 L692.392,196.692 L691.72,200.472 Z M693.148,192.408 L657.532,188.628 L693.82,188.628 L693.148,192.408 Z M694.576,184.344 L658.96,180.564 L695.164,180.564 L694.576,184.344 Z M689.956,212.82 L689.956,214.5 C689.956,215.452005 689.984,216.151998 690.04,216.6 L654.424,212.82 L689.956,212.82 Z M693.232,224.748 L657.616,220.968 L690.796,220.968 C691.412003,222.536008 692.223995,223.795995 693.232,224.748 Z M710.452,213.24 C711.964008,213.24 713.013997,213.058002 713.602,212.694 C714.190003,212.329998 714.595999,211.448007 714.82,210.048 L720.112,180.564 L734.224,180.564 L729.856,205.596 C728.511993,213.436039 726.342015,218.797986 723.346,221.682 C720.349985,224.566014 715.240036,226.008 708.016,226.008 C702.247971,226.008 698.216011,225.154009 695.92,223.446 C693.623989,221.737991 692.476,218.756021 692.476,214.5 C692.476,212.147988 692.783997,209.180018 693.4,205.596 L697.852,180.564 L711.964,180.564 L706.252,213.24 L710.452,213.24 Z M790.54,180.564 C798.716041,180.564 802.804,184.259963 802.804,191.652 C802.804,195.012017 802.132007,198.497982 800.788,202.11 C799.443993,205.722018 797.176016,208.423991 793.984,210.216 L798.772,225 L783.064,225 L779.872,212.064 L777.856,212.064 L775.588,225 L761.476,225 L769.204,180.564 L790.54,180.564 Z M787.432,195.096 C787.432,195.04 787.46,194.760003 787.516,194.256 C787.516,193.303995 786.032015,192.828 783.064,192.828 L781.216,192.828 L779.872,200.556 L782.56,200.556 C785.136013,200.556 786.591998,199.716008 786.928,198.036 L787.432,195.096 Z M758.704,224.748 L723.088,220.968 L759.376,220.968 L758.704,224.748 Z M761.56,208.536 L725.944,204.756 L762.232,204.756 L761.56,208.536 Z M762.988,200.472 L727.372,196.692 L763.66,196.692 L762.988,200.472 Z M764.416,192.408 L728.8,188.628 L765.088,188.628 L764.416,192.408 Z M765.844,184.344 L730.228,180.564 L766.432,180.564 L765.844,184.344 Z M760.132,216.6 L724.516,212.82 L760.804,212.82 L760.132,216.6 Z M862.06,206.94 L849.544,206.94 L848.536,212.652 L864.076,212.652 L861.892,225 L832.24,225 L839.968,180.564 L869.536,180.564 L865.588,193.164 L851.896,193.164 L850.888,198.876 L863.488,198.876 L862.06,206.94 Z M829.468,224.748 L793.852,220.968 L830.14,220.968 L829.468,224.748 Z M832.324,208.536 L796.708,204.756 L832.996,204.756 L832.324,208.536 Z M833.752,200.472 L798.136,196.692 L834.424,196.692 L833.752,200.472 Z M835.18,192.408 L799.564,188.628 L835.852,188.628 L835.18,192.408 Z M836.608,184.344 L800.992,180.564 L837.196,180.564 L836.608,184.344 Z M830.896,216.6 L795.28,212.82 L831.568,212.82 L830.896,216.6 Z M860.416,220.968 L896.704,220.968 L895.528,224.748 L860.416,220.968 Z M903.088,188.628 C902.751998,189.524004 902.388002,190.783992 901.996,192.408 L866.884,188.628 L903.088,188.628 Z M900.988,199.8 L900.988,200.472 L865.372,196.692 L901.156,196.692 C901.043999,198.036007 900.988,199.071996 900.988,199.8 Z M898.216,216.516 L863.188,212.82 L899.392,212.82 L898.216,216.516 Z M908.884,180.564 C907.371992,181.684006 906.224004,182.859994 905.44,184.092 L872.68,180.564 L908.884,180.564 Z M901.744,204.756 C902.248003,206.212007 903.059994,207.471995 904.18,208.536 L868.648,204.756 L901.744,204.756 Z M935.26,193.752 C931.451981,192.855996 928.204013,192.408 925.516,192.408 C922.827987,192.408 920.840006,192.491999 919.552,192.66 L919.132,195.096 L923.332,195.6 C932.348045,196.776006 936.856,200.499969 936.856,206.772 C936.856,207.500004 936.688002,208.85799 936.352,210.846 C936.015998,212.83401 935.456004,214.751991 934.672,216.6 C933.887996,218.448009 932.894006,219.945994 931.69,221.094 C930.485994,222.242006 929.310006,223.165997 928.162,223.866 C927.013994,224.566003 925.544009,225.055999 923.752,225.336 C920.951986,225.784002 917.214023,226.008 912.538,226.008 C907.861977,226.008 903.144024,225.364006 898.384,224.076 L902.5,211.644 C906.868022,212.876006 910.689984,213.492 913.966,213.492 C917.242016,213.492 919.551993,213.408001 920.896,213.24 L921.316,210.552 L916.024,209.964 C911.487977,209.459997 908.26801,208.396008 906.364,206.772 C904.45999,205.147992 903.508,202.824015 903.508,199.8 C903.508,198.679994 903.647999,197.280008 903.928,195.6 C905.048006,189.60797 907.063985,185.464011 909.976,183.168 C912.888015,180.871989 917.32597,179.724 923.29,179.724 C929.25403,179.724 934.587976,180.311994 939.292,181.488 L935.26,193.752 Z" id="WheelGestures"></path>
        </g>
    </g>
</svg>
