<?xml version="1.0" encoding="UTF-8"?>
<svg width="100px" height="100px" viewBox="0 0 100 100" version="1.1" xmlns="http://www.w3.org/2000/svg" xmlns:xlink="http://www.w3.org/1999/xlink">
    <!-- Generator: Sketch 55.2 (78181) - https://sketchapp.com -->
    <title>Artboard</title>
    <desc>Created with Sketch.</desc>
    <g id="Artboard" stroke="none" stroke-width="1" fill="none" fill-rule="evenodd">
        <g id="Group" transform="translate(1.000000, 25.000000)" fill="#FF4949" fill-rule="nonzero">
            <polygon id="Path" points="32 0 32 4 0 0"></polygon>
            <polygon id="Path" points="32 8 32 12 0 8"></polygon>
            <polygon id="Path" points="32 15 32 19 0 15"></polygon>
            <polygon id="Path" points="32 23 32 27 0 23"></polygon>
            <polygon id="Path" points="32 31 32 35 0 31"></polygon>
            <polygon id="Path" points="32 39 32 43 0 39"></polygon>
            <polygon id="Path" points="32 46 32 50 0 46"></polygon>
            <polygon id="Path" points="60.25 51 60.25 32.232 59.3615385 32.232 52.6576923 51 34 51 34 0 50.0730769 0 48.6192308 28.4784 49.1038462 28.4784 59.6038462 0 71.8 0 71.8 28.4784 72.2846154 28.4784 80.9269231 0 97 0 80.6038462 51"></polygon>
        </g>
    </g>
</svg>